<svg className='hover:fill-auretto' width="145" height="28" viewBox="0 0 145 28" fill="white" xmlns="http://www.w3.org/2000/svg">
  <path d="M14.9278 18.9935C14.5133 21.1127 13.8747 22.7874 13.0122 24.0169C12.149 25.2467 11.1948 25.8614 10.1486 25.8614C9.14342 25.8614 8.25667 25.2092 7.48954 23.9049C6.72164 22.6007 6.33807 21.0178 6.33807 19.1567C6.33807 16.1677 7.20052 13.9122 8.92617 12.3907C10.2162 11.2527 12.1606 10.3201 14.758 9.59228C14.9613 10.3725 15.1114 11.2481 15.2029 12.2275C15.4336 14.6188 15.3418 16.8742 14.9278 18.9935ZM22.7025 23.4975L21.3777 10.638C21.2149 8.93976 20.7596 7.61156 20.0125 6.65381C19.265 5.69606 18.1441 5.00649 16.6499 4.58549C15.0871 4.16411 13.0427 3.95381 10.5156 3.95381C8.74944 3.95381 5.91669 4.1236 2.01738 4.46317V11.1273H2.22151C2.54758 10.5431 2.90722 9.97894 3.30159 9.43562C4.29291 7.9685 5.28154 6.84752 6.26669 6.07306C7.25145 5.2986 8.335 4.91156 9.51695 4.91156C11.1882 4.91156 12.4956 5.51276 13.4402 6.71517C13.9673 7.3866 14.3794 8.2637 14.6843 9.33181C11.833 10.0615 9.43746 10.8568 7.49957 11.7181C4.93193 12.8595 3.04305 14.1704 1.83409 15.6514C0.611234 17.1864 0 18.9391 0 20.909C0.0270116 22.9198 0.689182 24.5467 1.9869 25.79C3.28422 27.0329 4.98595 27.6545 7.09208 27.6545C10.203 27.6545 12.5365 26.2824 14.0923 23.538C14.9594 22.0083 15.5035 20.1588 15.7269 17.9917L16.5681 27.2471H22.6616H24.0882L24.1291 27.1656C23.3407 26.6898 22.8653 25.4674 22.7025 23.4975Z" />
  <path d="M47.7964 23.4973V4.3002L41.2341 5.38028L39.8484 5.66544L39.8079 5.74725C40.6769 6.07332 41.1122 7.20086 41.1122 9.12987V15.6921C41.1122 17.5127 40.9185 19.1666 40.5311 20.6546C40.144 22.1421 39.5837 23.3275 38.8498 24.2104C38.1162 25.0937 37.2808 25.5352 36.3435 25.5352C35.2561 25.5352 34.4037 24.9953 33.7859 23.9152C33.1673 22.8352 32.8652 21.3032 32.8787 19.3198V4.3002L26.2963 5.38028L24.9106 5.66544V5.74725C25.78 6.07332 26.2149 7.20086 26.2149 9.12987L26.2554 20.1552C26.2554 22.3833 26.979 24.1564 28.426 25.4742C29.8731 26.792 31.7511 27.451 34.061 27.451C36.3701 27.451 38.1776 26.4049 39.4818 24.3123C40.5604 22.582 41.1859 20.3088 41.3723 17.5096L41.4383 17.5262V27.2469H47.4908H48.9174L48.9579 27.1655C48.1834 26.6631 47.7964 25.4402 47.7964 23.4973Z" />
  <path d="M64.7249 3.95358C62.8094 3.95358 61.3828 4.69756 60.4451 6.18513C59.8428 7.14095 59.4623 8.36265 59.2975 9.84327H59.1818L59.2632 4.3001L52.8642 5.38018L51.4989 5.66535L51.458 5.74677C52.3139 6.05933 52.7418 7.18726 52.7418 9.12978V23.4972C52.7418 25.4671 52.3548 26.69 51.5803 27.1654L51.6212 27.2468H53.0274H59.1818H60.5879L60.6288 27.1654C59.8544 26.69 59.4669 25.4671 59.4669 23.4972V12.5537C59.4669 10.9639 59.7965 9.75143 60.4556 8.916C61.1143 8.08018 62.0485 7.66266 63.2578 7.66266C64.2086 7.66266 65.105 8.04314 65.9478 8.80371C66.7898 9.56466 67.4558 10.6312 67.9447 12.0034H68.1079V4.70759C67.0888 4.20479 65.9609 3.95358 64.7249 3.95358Z" />
  <path d="M108.627 23.9048C108.355 24.5435 107.958 25.0358 107.435 25.3824C106.911 25.7289 106.324 25.9021 105.672 25.9021C103.498 25.9021 102.411 24.4007 102.411 21.3982V5.13603C104.309 5.14067 106.275 5.15224 108.275 5.17887V21.7856C108.275 22.5805 108.413 23.2955 108.674 23.9384L108.627 23.9048ZM121.175 23.9048C120.903 24.5435 120.506 25.0358 119.983 25.3824C119.46 25.7289 118.872 25.9021 118.22 25.9021C116.046 25.9021 114.959 24.4007 114.959 21.3982V5.33553C116.961 5.40538 118.951 5.49838 120.89 5.62456L120.93 4.25932H114.959V-2.42471e-05H114.756C114.076 1.30425 112.85 2.32992 111.077 3.07737C109.429 3.77195 107.516 4.15397 105.346 4.25932H102.411V-2.42471e-05H102.208C101.528 1.30425 100.302 2.32992 98.5294 3.07737C96.9743 3.73259 95.1865 4.12657 93.1672 4.25932H92.3032V5.13565H95.7271V21.7856C95.7271 23.5379 96.3619 24.9205 97.6326 25.9326C98.9025 26.9448 100.604 27.4507 102.737 27.4507C105.728 27.4507 107.756 26.3907 108.826 24.2764C109.142 24.9074 109.589 25.4619 110.18 25.9326C111.451 26.9448 113.152 27.4507 115.285 27.4507C118.356 27.4507 120.414 26.3366 121.46 24.1086L121.175 23.9048Z" />
  <path d="M81.4011 5.0452C86.1999 4.93561 86.3994 11.4003 86.3994 12.2017L76.0161 12.8049C76.2488 9.60938 77.2494 5.14013 81.4011 5.0452ZM84.4912 24.6714C79.0245 24.6714 75.9478 19.831 75.9478 14.828C75.9478 14.4819 75.9525 14.0721 75.9702 13.6202L91.936 13.5523C91.936 11.1541 89.6747 3.95123 81.4011 3.95123C73.1274 3.95123 69.5901 10.5235 69.5901 15.7622C69.5901 21.0013 73.5484 27.5732 81.4011 27.5732C89.2537 27.5732 91.7068 20.7887 91.7068 19.4215H91.3545C91.1229 20.3689 89.2889 24.6714 84.4912 24.6714Z" />
  <path d="M133.188 3.94994C132.864 3.94994 132.54 3.96152 132.223 3.98853V5.14213C132.528 5.07654 132.852 5.04568 133.192 5.04568C133.528 5.04568 133.848 5.07654 134.153 5.14213V3.98853C133.836 3.96152 133.512 3.94994 133.188 3.94994ZM137.22 23.8853C137.197 23.9278 137.178 23.9702 137.155 24.0127C137.151 24.0165 137.151 24.0204 137.147 24.0242C137.151 24.0204 137.151 24.0165 137.151 24.0127L135.97 24.4023L137.595 23.0751C137.483 23.3645 137.356 23.6346 137.22 23.8853ZM129.244 24.0397C129.236 24.032 129.233 24.0242 129.229 24.0165C129.209 23.9779 129.186 23.9355 129.167 23.8969C129.032 23.6461 128.905 23.3722 128.789 23.079L130.406 24.4023L129.233 24.0165C129.236 24.0242 129.24 24.032 129.244 24.0397ZM145 15.7599C145 15.5285 144.992 15.297 144.981 15.0655L139.57 19.4793L144.691 13.0592C144.514 12.303 144.263 11.5776 143.95 10.887L138.617 17.581C138.559 18.6536 138.455 19.6375 138.293 20.521C138.262 20.7178 138.224 20.9107 138.181 21.0959L135.222 23.515L138.617 17.5232C138.629 17.2415 138.641 16.956 138.648 16.6628V16.6589L142.515 8.51036C142.086 7.96249 141.612 7.45321 141.099 6.99022L138.498 12.4727C138.586 13.2945 138.637 14.1742 138.652 15.1195L134.315 22.7626L136.973 7.21014C137.367 7.83131 137.687 8.57981 137.938 9.45176L138.864 5.40063C138.293 5.08812 137.691 4.81804 137.066 4.60198L136.595 6.67385C136.406 6.4385 136.206 6.23015 135.993 6.04882L133.188 22.4848L130.383 6.05267C130.17 6.23787 129.97 6.44621 129.784 6.6777L129.31 4.60584C128.685 4.8219 128.083 5.08812 127.512 5.40449L128.442 9.46334C128.692 8.58752 129.013 7.83517 129.406 7.214L132.057 22.7587L127.728 15.1195C127.743 14.1781 127.793 13.2984 127.878 12.4805L125.277 6.99408C124.764 7.45706 124.289 7.96249 123.865 8.51422L127.732 16.6666C127.739 16.9599 127.751 17.2454 127.762 17.5232V17.527L131.162 23.5227L128.198 21.0997C128.156 20.9107 128.117 20.7216 128.087 20.521C127.924 19.6375 127.82 18.6536 127.766 17.581L122.426 10.8909C122.117 11.5815 121.866 12.3068 121.689 13.0592L126.817 19.487L121.399 15.0693C121.388 15.297 121.38 15.5285 121.38 15.7599C121.38 16.412 121.434 17.0486 121.534 17.6698L125.887 21.2193L121.901 19.2362C122.206 20.2278 122.638 21.1653 123.178 22.0257L126.296 23.5767L123.946 23.1098C124.529 23.8429 125.192 24.5027 125.929 25.0775C126.176 25.2666 126.431 25.4479 126.69 25.6215C128.553 26.8523 130.788 27.5699 133.188 27.5699C135.588 27.5699 137.826 26.8523 139.69 25.6215H139.694C139.953 25.4479 140.203 25.2666 140.45 25.0775C141.187 24.5027 141.855 23.8391 142.438 23.1098L140.08 23.5767L143.206 22.0257C143.746 21.1653 144.178 20.2278 144.483 19.2323L140.489 21.2193L144.846 17.6659C144.946 17.0447 145 16.4081 145 15.7599Z" />
</svg>