<svg className='hover:fill-auretto' width="183" height="280" viewBox="0 0 183 280" fill="white" xmlns="http://www.w3.org/2000/svg">
  <path d="M57.2568 52.8612C55.8248 60.1839 53.6181 65.9706 50.6381 70.2186C47.6554 74.4679 44.3581 76.5919 40.7434 76.5919C37.2701 76.5919 34.2061 74.3386 31.5554 69.8319C28.9021 65.3252 27.5768 59.8559 27.5768 53.4252C27.5768 43.0972 30.5568 35.3039 36.5194 30.0466C40.9768 26.1146 47.6954 22.8919 56.6701 20.3772C57.3728 23.0732 57.8914 26.0986 58.2074 29.4826C59.0048 37.7452 58.6874 45.5386 57.2568 52.8612ZM84.1208 68.4239L79.5434 23.9906C78.9808 18.1226 77.4074 13.5332 74.8261 10.2239C72.2434 6.91456 68.3701 4.53189 63.2074 3.07722C57.8074 1.62122 50.7434 0.894562 42.0114 0.894562C35.9088 0.894562 26.1208 1.48123 12.6474 2.65456V25.6812H13.3528C14.4794 23.6626 15.7221 21.7132 17.0848 19.8359C20.5101 14.7666 23.9261 10.8932 27.3301 8.21722C30.7328 5.54122 34.4768 4.2039 38.5608 4.2039C44.3354 4.2039 48.8528 6.28123 52.1168 10.4359C53.9381 12.7559 55.3621 15.7866 56.4154 19.4772C46.5634 21.9986 38.2861 24.7466 31.5901 27.7226C22.7181 31.6666 16.1914 36.1959 12.0141 41.3132C7.78876 46.6172 5.67676 52.6732 5.67676 59.4799C5.77009 66.4279 8.05809 72.0492 12.5421 76.3452C17.0248 80.6399 22.9048 82.7879 30.1821 82.7879C40.9314 82.7879 48.9941 78.0466 54.3701 68.5639C57.3661 63.2786 59.2461 56.8879 60.0181 49.3999L62.9248 81.3799H83.9794H88.9088L89.0501 81.0986C86.3261 79.4546 84.6834 75.2306 84.1208 68.4239Z"/>
  <path d="M170.828 68.4232V2.09122L148.154 5.82322L143.366 6.80856L143.226 7.09122C146.228 8.21789 147.732 12.1139 147.732 18.7792V41.4539C147.732 47.7446 147.063 53.4592 145.724 58.6006C144.387 63.7406 142.451 67.8366 139.915 70.8872C137.38 73.9392 134.494 75.4646 131.255 75.4646C127.498 75.4646 124.552 73.5992 122.418 69.8672C120.28 66.1352 119.236 60.8419 119.283 53.9886V2.09122L96.539 5.82322L91.751 6.80856V7.09122C94.755 8.21789 96.2576 12.1139 96.2576 18.7792L96.3976 56.8752C96.3976 64.5739 98.8976 70.7006 103.898 75.2539C108.898 79.8072 115.387 82.0846 123.368 82.0846C131.347 82.0846 137.592 78.4699 142.099 71.2392C145.826 65.2606 147.987 57.4059 148.631 47.7339L148.859 47.7912V81.3792H169.772H174.702L174.842 81.0979C172.166 79.3619 170.828 75.1366 170.828 68.4232Z"/>
  <path d="M54.0528 99.4812C47.4341 99.4812 42.5048 102.052 39.2648 107.192C37.1834 110.495 35.8688 114.716 35.2994 119.832H34.8994L35.1808 100.679L13.0701 104.411L8.35276 105.396L8.21143 105.677C11.1688 106.757 12.6474 110.655 12.6474 117.367V167.011C12.6474 173.817 11.3101 178.043 8.63409 179.685L8.77543 179.967H13.6341H34.8994H39.7581L39.8994 179.685C37.2234 178.043 35.8848 173.817 35.8848 167.011V129.197C35.8848 123.704 37.0234 119.515 39.3008 116.628C41.5768 113.74 44.8048 112.297 48.9834 112.297C52.2688 112.297 55.3661 113.612 58.2781 116.24C61.1874 118.869 63.4888 122.555 65.1781 127.296H65.7421V102.087C62.2208 100.349 58.3234 99.4812 54.0528 99.4812Z"/>
  <path d="M111.674 103.253C128.255 102.874 128.945 125.211 128.945 127.981L93.0673 130.065C93.8713 119.023 97.3286 103.581 111.674 103.253ZM122.351 171.067C103.462 171.067 92.8313 154.342 92.8313 137.055C92.8313 135.859 92.8473 134.443 92.9086 132.882L148.075 132.647C148.075 124.361 140.262 99.4727 111.674 99.4727C83.0859 99.4727 70.8633 122.182 70.8633 140.283C70.8633 158.386 84.5406 181.094 111.674 181.094C138.807 181.094 147.283 157.651 147.283 152.927H146.066C145.266 156.201 138.929 171.067 122.351 171.067Z"/>
  <path d="M57.2976 266.469C56.3576 268.675 54.9842 270.377 53.1776 271.574C51.3696 272.771 49.3402 273.37 47.0869 273.37C39.5749 273.37 35.8202 268.182 35.8202 257.807V201.617C42.3762 201.633 49.1696 201.673 56.0802 201.765V259.146C56.0802 261.893 56.5562 264.363 57.4602 266.585L57.2976 266.469ZM100.655 266.469C99.7149 268.675 98.3429 270.377 96.5349 271.574C94.7282 272.771 92.6976 273.37 90.4442 273.37C82.9336 273.37 79.1776 268.182 79.1776 257.807V202.306C86.0936 202.547 92.9709 202.869 99.6682 203.305L99.8096 198.587H79.1776V183.87H78.4736C76.1256 188.377 71.8896 191.921 65.7629 194.503C60.0682 196.903 53.4589 198.223 45.9589 198.587H35.8202V183.87H35.1162C32.7682 188.377 28.5322 191.921 22.4069 194.503C17.0336 196.767 10.8562 198.129 3.87889 198.587H0.893555V201.615H12.7242V259.146C12.7242 265.201 14.9176 269.978 19.3082 273.475C23.6962 276.973 29.5762 278.721 36.9469 278.721C47.2802 278.721 54.2869 275.058 57.9856 267.753C59.0776 269.933 60.6229 271.849 62.6642 273.475C67.0536 276.973 72.9336 278.721 80.3042 278.721C90.9136 278.721 98.0256 274.871 101.64 267.173L100.655 266.469Z"/>
  <path d="M125.058 219.29L120.671 203.636C121.738 202.97 122.831 202.356 123.964 201.796L127.058 212.81C126.258 214.743 125.591 216.903 125.058 219.29ZM123.324 234.743L112.644 210.17C113.538 209.21 114.484 208.316 115.471 207.463L123.844 226.756C123.578 229.25 123.404 231.903 123.324 234.743ZM159.284 219.276C158.751 216.89 158.084 214.73 157.284 212.81L160.378 201.796C161.511 202.356 162.604 202.97 163.671 203.636L159.284 219.276ZM160.498 226.743L168.871 207.463C169.858 208.316 170.804 209.21 171.698 210.17L161.018 234.73C160.938 231.89 160.764 229.236 160.498 226.743ZM159.844 254.596C159.844 254.636 159.831 254.676 159.818 254.716C159.638 255.742 159.432 256.719 159.211 257.67L151.644 264.023L159.907 254.176C159.884 254.312 159.868 254.462 159.844 254.596ZM157.516 263.267L153.164 265.783L158.102 261.644C157.915 262.203 157.72 262.744 157.516 263.267ZM125.118 257.628C124.902 256.696 124.7 255.735 124.524 254.73C124.511 254.69 124.511 254.65 124.511 254.61C124.483 254.454 124.464 254.283 124.436 254.126L132.738 264.023L125.118 257.628ZM126.816 263.243C126.612 262.715 126.418 262.171 126.235 261.611L131.218 265.796L126.816 263.243ZM182.978 238.023C182.964 236.423 182.858 234.85 182.658 233.29L160.151 254.316L181.631 227.903C181.258 226.49 180.818 225.09 180.298 223.743L160.698 247.823C160.64 248.52 160.56 249.176 160.488 249.847L149.884 262.503L160.97 243.291C160.927 244.347 160.878 245.39 160.804 246.396L177.804 218.436C177.138 217.236 176.418 216.076 175.631 214.956L161.071 238.903V238.436L147.844 261.33L160.484 226.636C160.298 224.916 160.071 223.29 159.778 221.743L145.644 260.57L154.884 208.236C154.384 207.491 153.848 206.814 153.283 206.188L154.231 199.33C153.058 198.97 151.871 198.65 150.658 198.396L149.978 203.396C151.059 204.05 152.042 204.887 152.944 205.85L143.351 260.196V201.364C143.559 201.378 143.774 201.374 143.978 201.396V197.556C143.378 197.53 142.778 197.516 142.164 197.516C141.538 197.516 140.924 197.53 140.311 197.556V201.41C140.542 201.379 140.78 201.362 141.018 201.346V260.13L131.435 205.782C132.322 204.846 133.294 204.035 134.351 203.396L133.671 198.396C132.458 198.663 131.271 198.97 130.098 199.33L131.044 206.196C130.5 206.803 129.979 207.448 129.484 208.17L138.738 260.57L124.578 221.676C124.284 223.21 124.058 224.836 123.871 226.543L136.538 261.33L123.271 238.37V238.916L108.711 214.97C107.924 216.09 107.204 217.25 106.538 218.45L123.538 246.41C123.462 245.375 123.411 244.303 123.368 243.216L134.498 262.503L123.855 249.812C123.788 249.16 123.71 248.524 123.658 247.85L104.044 223.756C103.524 225.103 103.084 226.49 102.711 227.903L124.218 254.343L101.684 233.303C101.484 234.85 101.378 236.423 101.364 238.023L121.778 257.076L101.618 242.85C101.804 244.596 102.111 246.303 102.511 247.97L119.578 260.023L103.631 251.756C104.258 253.596 105.031 255.37 105.911 257.076L117.911 263.29L107.271 259.516C108.404 261.356 109.671 263.116 111.058 264.756L116.831 266.81L112.418 266.263C113.535 267.456 114.739 268.559 115.99 269.611L115.951 269.623C116.227 269.854 116.51 270.075 116.792 270.298C116.81 270.312 116.826 270.328 116.844 270.343H116.848C123.81 275.854 132.604 279.143 142.178 279.143C151.744 279.143 160.531 275.855 167.494 270.343H167.498C167.507 270.336 167.515 270.328 167.524 270.32C168.082 269.878 168.631 269.427 169.164 268.956L169.132 268.943C170.1 268.088 171.042 267.206 171.924 266.263L167.498 266.81L173.298 264.743C174.684 263.103 175.951 261.343 177.071 259.503L166.418 263.29L178.444 257.05C179.324 255.343 180.084 253.57 180.724 251.743L164.738 260.023L181.831 247.956C182.244 246.29 182.538 244.583 182.724 242.85L162.538 257.09L182.978 238.023Z"/>
</svg>
